<svg xmlns="http://www.w3.org/2000/svg" width="34.969" height="34.969" viewBox="0 0 34.969 34.969">
  <g id="vuesax_bold_like" data-name="vuesax/bold/like" transform="translate(-300 -188)">
    <g id="like" transform="translate(300 188)">
      <path id="Vector" d="M0,23.637V8.833A2.945,2.945,0,0,1,.5,7.2L4.473,1.286A3.147,3.147,0,0,1,7.984.164a3.173,3.173,0,0,1,2.069,3.511L9.3,8.447A1.457,1.457,0,0,0,9.6,9.584a1.355,1.355,0,0,0,1.005.452H16.6a3.262,3.262,0,0,1,2.725,1.282,3.07,3.07,0,0,1,.291,2.841L16.027,25.065a4.681,4.681,0,0,1-4.371,3.278H5.974A4.75,4.75,0,0,1,3,27.381L1.136,25.939A2.892,2.892,0,0,1,0,23.637Z" transform="translate(12.224 3.304)" fill="#519872"/>
      <path id="Vector-2" data-name="Vector" d="M4.677,0h-1.5C.918,0,0,.874,0,3.031V17.688c0,2.156.918,3.031,3.176,3.031h1.5c2.258,0,3.176-.874,3.176-3.031V3.031C7.853.874,6.935,0,4.677,0Z" transform="translate(2.914 9.296)" fill="#519872"/>
      <path id="Vector-3" data-name="Vector" d="M0,0H34.969V34.969H0Z" transform="translate(34.969 34.969) rotate(180)" fill="none" opacity="0"/>
    </g>
  </g>
</svg>
