<svg xmlns="http://www.w3.org/2000/svg" width="37.379" height="37.379" viewBox="0 0 37.379 37.379">
  <g id="vuesax_bold_shield-tick" data-name="vuesax/bold/shield-tick" transform="translate(-300 -188)">
    <path id="Vector" d="M23.346,3.453,14.78.245a5.418,5.418,0,0,0-3.224,0L2.99,3.453A4.957,4.957,0,0,0,0,7.767V20.383a5.171,5.171,0,0,0,1.838,3.676l8.566,6.4a4.858,4.858,0,0,0,5.5,0l8.566-6.4a5.2,5.2,0,0,0,1.838-3.676V7.767a4.926,4.926,0,0,0-2.959-4.314ZM18.58,12.175l-6.7,6.7a1.165,1.165,0,0,1-1.651,0L7.741,16.354A1.168,1.168,0,0,1,9.391,14.7l1.682,1.682,5.872-5.872A1.168,1.168,0,1,1,18.58,12.18Z" transform="translate(305.529 190.962)" fill="#519872"/>
    <path id="Vector-2" data-name="Vector" d="M0,0H37.379V37.379H0Z" transform="translate(337.379 225.379) rotate(180)" fill="none" opacity="0"/>
  </g>
</svg>
