<svg xmlns="http://www.w3.org/2000/svg" width="218.816" height="218.816" viewBox="0 0 218.816 218.816">
  <g id="vuesax_bold_truck-time" data-name="vuesax/bold/truck-time" transform="translate(-172 -252)">
    <g id="truck-time" transform="translate(172 252)">
      <path id="Vector" d="M177.788,95.732a4.514,4.514,0,0,1,4.559,4.559v9.117a27.315,27.315,0,0,1-27.352,27.352,27.352,27.352,0,0,0-54.7,0H82.056a27.352,27.352,0,0,0-54.7,0A27.315,27.315,0,0,1,0,109.408V91.173a9.144,9.144,0,0,1,9.117-9.117H95.732a22.8,22.8,0,0,0,22.793-22.793V9.117A9.144,9.144,0,0,1,127.643,0H135.3a18.384,18.384,0,0,1,15.864,9.209L157,19.42a2.3,2.3,0,0,1-2.006,3.373A22.8,22.8,0,0,0,132.2,45.587V72.939a22.8,22.8,0,0,0,22.793,22.793Z" transform="translate(18.235 45.587)" fill="#3a3a3a"/>
      <path id="Vector-2" data-name="Vector" d="M36.469,18.235A18.235,18.235,0,1,1,18.235,0,18.235,18.235,0,0,1,36.469,18.235Z" transform="translate(54.704 164.112)" fill="#3a3a3a"/>
      <path id="Vector-3" data-name="Vector" d="M36.469,18.235A18.235,18.235,0,1,1,18.235,0,18.235,18.235,0,0,1,36.469,18.235Z" transform="translate(127.643 164.112)" fill="#3a3a3a"/>
      <path id="Vector-4" data-name="Vector" d="M36.469,32.184v13.4H9.117A9.144,9.144,0,0,1,0,36.469V9.117A9.144,9.144,0,0,1,9.117,0H20.879L34.1,23.158A18.279,18.279,0,0,1,36.469,32.184Z" transform="translate(164.112 82.056)" fill="#3a3a3a"/>
      <path id="Vector-5" data-name="Vector" d="M0,0H218.816V218.816H0Z" fill="none" opacity="0"/>
      <path id="Vector-6" data-name="Vector" d="M101.02,0H33.643A33.619,33.619,0,0,0,0,33.643V91.9a9.144,9.144,0,0,0,9.117,9.117H92.541a16.887,16.887,0,0,0,16.867-16.867V8.388A8.366,8.366,0,0,0,101.02,0ZM67.286,53.884A6.851,6.851,0,0,1,64,59.719l-11.4,6.838a6.6,6.6,0,0,1-3.556,1,6.875,6.875,0,0,1-5.835-3.282A6.8,6.8,0,0,1,45.5,54.886l8.114-4.832V40.208a6.838,6.838,0,0,1,13.676,0Z" transform="translate(18.235 18.235)" fill="#3a3a3a"/>
    </g>
  </g>
</svg>
