<svg xmlns="http://www.w3.org/2000/svg" width="232.554" height="232.554" viewBox="0 0 232.554 232.554">
  <g id="vuesax_bold_coffee" data-name="vuesax/bold/coffee" transform="translate(-364 -444)">
    <g id="coffee" transform="translate(364 444)">
      <path id="Vector" d="M7.267,31.492A7.32,7.32,0,0,1,0,24.224V7.267A7.32,7.32,0,0,1,7.267,0a7.32,7.32,0,0,1,7.267,7.267V24.224A7.257,7.257,0,0,1,7.267,31.492Z" transform="translate(50.871 18.12)" fill="#3a3a3a"/>
      <path id="Vector-2" data-name="Vector" d="M7.267,31.492A7.32,7.32,0,0,1,0,24.224V7.267A7.32,7.32,0,0,1,7.267,0a7.32,7.32,0,0,1,7.267,7.267V24.224A7.257,7.257,0,0,1,7.267,31.492Z" transform="translate(89.63 18.12)" fill="#3a3a3a"/>
      <path id="Vector-3" data-name="Vector" d="M7.267,31.492A7.32,7.32,0,0,1,0,24.224V7.267A7.32,7.32,0,0,1,7.267,0a7.32,7.32,0,0,1,7.267,7.267V24.224A7.257,7.257,0,0,1,7.267,31.492Z" transform="translate(128.389 18.12)" fill="#3a3a3a"/>
      <path id="Vector-4" data-name="Vector" d="M191.372,67.731A48.412,48.412,0,0,0,146.9,19.67,40.666,40.666,0,0,0,112.207,0H40.794A40.857,40.857,0,0,0,0,40.794v5.136H153V40.794a33.215,33.215,0,0,0-.581-5.426A33.642,33.642,0,0,1,153,99.9V55.619H0v56.1a40.857,40.857,0,0,0,40.794,40.794h71.413a40.637,40.637,0,0,0,40.406-37.4A48.426,48.426,0,0,0,191.372,67.731Z" transform="translate(24.224 60.658)" fill="#3a3a3a"/>
      <path id="Vector-5" data-name="Vector" d="M0,0H232.554V232.554H0Z" transform="translate(232.554 232.554) rotate(180)" fill="none" opacity="0"/>
    </g>
  </g>
</svg>
