<svg xmlns="http://www.w3.org/2000/svg" width="76.717" height="60.464" viewBox="0 0 76.717 60.464">
  <g id="Layer_2" data-name="Layer 2" transform="translate(0 0)">
    <g id="Object" transform="translate(0 0)">
      <path id="Path_5" data-name="Path 5" d="M70.214,22.2H59.381a30.247,30.247,0,1,0,.668,13H70.214a6.5,6.5,0,1,0,0-13.006Zm0,11.033H58.342l-.117.853a28.248,28.248,0,1,1-.557-10.635l.2.832.853-.086a4.317,4.317,0,0,1,.461-.025H70.214a4.531,4.531,0,1,1,0,9.062Z" transform="translate(0 0)" fill="#d16014"/>
      <path id="Path_6" data-name="Path 6" d="M56.526,30.58A23.966,23.966,0,1,0,80.492,54.546,23.966,23.966,0,0,0,56.526,30.58ZM54.4,35.294c.728.2,1.258,1.117,1.871,1.713h.012c.615-.6,1.142-1.509,1.871-1.713.805-.225,1.83,1.791,1.306,2.9-.789,1.658-1.816,3.22-2.927,5.067-.07.164-.141.328-.2.5-.014-.027-.029-.047-.043-.074-.014.027-.029.047-.045.074-.072-.172-.141-.336-.2-.5-1.109-1.845-2.138-3.409-2.925-5.067-.541-1.1.482-3.115,1.289-2.89Zm-1.129,5.825,3.224,5.011,3.228-5.591c1.892,4.509-2.685,6.366-3.232,9.674C53.4,47.2,51.933,43.214,53.269,41.119Zm-1.941,4.226,5.032,8.518,4.714-9.352c1.5,2.236,1.275,6.53-.5,8.334-1.322,1.342-2.753,2.578-4.05,3.784-1.511-1.322-3.095-2.664-4.618-4.052a5.533,5.533,0,0,1-.58-7.241Zm1.435,10.508a7.223,7.223,0,0,1,2.913,5.04,7.68,7.68,0,0,0-5.534-4.642l4.671,4.954c-4.753-2.154-8.084-5.362-8.073-10.994,1.088,2.912,3.771,4.025,6.022,5.632Zm-9.33-1.535c.582.873,1.025,1.5,1.435,2.152A9.971,9.971,0,0,0,51.4,60.814a5.7,5.7,0,0,1,4.714,5.552c-.916-2.316-2.632-2.941-4.444-3.47-1.7-.5-3.378-1.076-5.183-1.658,1.025,1.92,2.724,2.744,4.6,3.39a11.2,11.2,0,0,1,3.261,1.406,7.056,7.056,0,0,1,1.931,3.031c-1.547-2.347-3.976-2.869-6.391-3.484C44.507,64.179,41.718,59.43,43.433,54.319Zm12.3,20.58a48.227,48.227,0,0,0-4.745-3.013c-1.984-.949-4.2-1.418-6.194-2.345a9.417,9.417,0,0,1-5.071-10.623,3.074,3.074,0,0,1,.48-1.058c.953,5.112,4.509,7.147,8.99,8.2a10.269,10.269,0,0,1,6.071,3.6,3.64,3.64,0,0,1,.754,2.226,6.294,6.294,0,0,0-1.1-1.144c-1.554-.959-2.958-2.445-4.749-2.72a17.11,17.11,0,0,1-7-2.925,10,10,0,0,0,2.441,3.115c1.32,1.271,2.826,1.14,4.6,1.668,2.6.775,5.022,1.7,6.077,4.523.076.2.35.334.367.861a5.412,5.412,0,0,1-.912-.369Zm3.534-19.432c2.068-2.013,4.661-3.6,5.329-6.79.912,5.819-2.019,9.666-6.583,12.65l4.013-5.86a8.04,8.04,0,0,0-4.964,5.679A7.563,7.563,0,0,1,59.264,55.466Zm2.46,6.178c-2.621.748-2.416,1.082-3.933,3.21a.616.616,0,0,0-.115-.049,12.743,12.743,0,0,1,1.685-2.79,39.332,39.332,0,0,1,3.751-3.042C65,57.307,66.8,55.55,68.559,53.913c.967,1.931.336,5.739-1.976,7.789A43.971,43.971,0,0,1,60.8,65.542c-1.092.695-2.207,1.338-3.279,1.978a2.48,2.48,0,0,1,.5-1.3c1.14-1.154,1.793-2.447,3.017-2.956a14.4,14.4,0,0,0,3.921-3.074c-.15-.123-1.765.961-3.238,1.459Zm11.658,1.217c-.685,2.915-2.714,4.767-5.249,6.057a42.307,42.307,0,0,1-4.837,1.9c-1.718.615-3.46,1.164-5.643,1.894,3.238-3.5,8.455-2.9,11.275-6.59L57.655,70.812a4.674,4.674,0,0,1,2.664-2.841c1.716-.855,3.484-1.593,5.212-2.433,3.5-1.707,5.944-4.23,6.223-8.858a6.285,6.285,0,0,1,1.619,6.186Z" transform="translate(-25.886 -24.312)" fill="#d16014"/>
    </g>
  </g>
</svg>
