<svg id="vuesax_bold_shopping-cart" data-name="vuesax/bold/shopping-cart" xmlns="http://www.w3.org/2000/svg" width="42.441" height="42.441" viewBox="0 0 42.441 42.441">
  <g id="shopping-cart" transform="translate(0 0)">
    <path id="Vector" d="M0,0H42.441V42.441H0Z" fill="none" opacity="0"/>
    <path id="Vector-2" data-name="Vector" d="M6.189,3.095A3.095,3.095,0,1,1,3.095,0,3.095,3.095,0,0,1,6.189,3.095Z" transform="translate(25.641 33.599)" fill="#edecec"/>
    <path id="Vector-3" data-name="Vector" d="M6.189,3.095A3.095,3.095,0,1,1,3.095,0,3.095,3.095,0,0,1,6.189,3.095Z" transform="translate(11.494 33.599)" fill="#edecec"/>
    <path id="Vector-4" data-name="Vector" d="M6.348,4.757,5.995,9.089A1.4,1.4,0,0,0,7.409,10.61H34.483A1.415,1.415,0,0,0,35.9,9.3a5.229,5.229,0,0,0-5.287-5.676H8.877A4.822,4.822,0,0,0,7.8,1.485,4.7,4.7,0,0,0,4.4,0H1.326A1.335,1.335,0,0,0,0,1.326,1.335,1.335,0,0,0,1.326,2.653H4.4a1.945,1.945,0,0,1,1.945,2.1Z" transform="translate(2.21 2.21)" fill="#edecec"/>
    <path id="Vector-5" data-name="Vector" d="M29.2,0H2.069A1.415,1.415,0,0,0,.655,1.291L.018,8.983a5.167,5.167,0,0,0,5.146,5.606H24.828A5.305,5.305,0,0,0,30.01,9.761L30.593,1.5A1.383,1.383,0,0,0,29.2,0Z" transform="translate(7.073 15.473)" fill="#edecec"/>
  </g>
</svg>
